<svg xmlns="http://www.w3.org/2000/svg" fill="none" class="lg:hidden" viewBox="0 0 126 44">
  <path fill="#FFF" d="M11.23 14.909a15 15 0 0 1 .134 1.15q.023.235.023.446.008.211.008.423 0 1.04-.266 1.855a3.8 3.8 0 0 1-.76 1.37q-.5.555-1.228.852-.727.29-1.667.29-.101 0-.149.008a.3.3 0 0 0-.07.007h-.063a2 2 0 0 0-.125-.023q.079.783.141 1.643.063.854.11 1.722a64 64 0 0 1 .094 3.287h-3.03q0-1.361-.023-2.739-.015-1.377-.11-2.645a24 24 0 0 0-.273-2.395 10 10 0 0 0-.509-1.972q-.125-.329-.203-.517a6 6 0 0 0-.141-.344 3 3 0 0 0-.172-.329l-.259-.47 2.536-1.604q.196.306.313.517.126.203.227.415.102.204.211.461.11.25.274.65v-.016q.126.29.259.58.132.281.29.516.163.227.36.368.202.132.453.125a.67.67 0 0 0 .477-.196q.196-.188.306-.461.117-.282.164-.595.047-.32.047-.58v-.273q0-.126-.016-.258a4 4 0 0 0-.031-.313l-.063-.423zm7.321 7.427q-.462 0-.908-.063a4.5 4.5 0 0 1-.86-.211q.148 1.542.187 2.974.04 1.431.04 2.825h-3.03q0-1.573-.062-3.115a30 30 0 0 0-.266-2.99q-.195-1.44-.571-2.73-.376-1.293-1.002-2.356l2.582-1.597.259.438a3 3 0 0 1 .274.587q.047.133.101.306a4.6 4.6 0 0 1 .705-.642 5 5 0 0 1 .822-.509q.439-.21.892-.329.461-.117.923-.117.673 0 1.385.235.72.227 1.487.86l-1.408 2.121a2 2 0 0 0-.352-.125 3 3 0 0 0-.447-.101 6.6 6.6 0 0 0-1.04-.087q-.275 0-.61.11-.33.11-.611.274-.274.156-.454.344-.18.189-.149.337.031.172.266.305.243.126.564.22.328.084.665.132.345.04.587.04.234 0 .524-.04.29-.046.61-.133.322-.086.65-.211.329-.126.634-.298l1.237 2.333a8 8 0 0 1-.986.579 7 7 0 0 1-.932.368 5.8 5.8 0 0 1-1.706.266m26.043-3.28q.085.165.219.454.141.29.297.666.165.375.329.814.165.438.297.907.135.462.212.94.086.477.086.915a5.2 5.2 0 0 1-.25 1.573q-.243.728-.713 1.268a3.3 3.3 0 0 1-1.15.853q-.69.313-1.597.313-.351 0-.642-.078a2.3 2.3 0 0 1-.516-.211 2.3 2.3 0 0 1-.43-.298q-.195-.165-.36-.352-.211.36-.556.58-.336.226-.744.328a3 3 0 0 1-.853.086 3.7 3.7 0 0 1-.837-.125 5.3 5.3 0 0 1-.376 1.635 4.8 4.8 0 0 1-.782 1.323q-.486.587-1.12 1.017a6.6 6.6 0 0 1-1.353.712q-.72.283-1.51.423a9 9 0 0 1-1.566.141q-1.268 0-2.316-.423a5.2 5.2 0 0 1-1.793-1.174 5.3 5.3 0 0 1-1.166-1.823q-.407-1.056-.407-2.34.024-.681.196-1.416.172-.744.438-1.472.274-.728.61-1.408.337-.681.697-1.253l2.2 1.667q-.284.478-.54.994-.251.51-.447 1.025-.195.51-.313 1.002-.11.494-.11.931-.022.532.188.994.211.47.603.814.39.352.931.556.549.203 1.198.203 1.987 0 2.927-.782.947-.775.947-2.23 0-.408-.11-.846a7 7 0 0 0-.313-.955q-.204-.509-.493-1.111-.29-.603-.65-1.33l2.693-1.51q.225.515.43 1.024.211.501.407.947.204.447.391.822.196.368.384.626.195.259.391.391.195.126.407.087a.84.84 0 0 0 .47-.235q.171-.188.258-.454.085-.266.102-.587.023-.33.007-.673a15 15 0 0 0-.03-.697 10 10 0 0 1-.024-.65l2.465-.312.015.164q.016.165.047.43.031.26.079.603.054.336.125.689.07.345.164.68.094.33.212.588.125.25.266.399.148.148.328.125.415-.047.61-.274a1 1 0 0 0 .243-.571q.04-.352-.062-.799a6 6 0 0 0-.282-.946q-.18-.502-.422-1.018-.243-.524-.486-1.017zm-4.68-1.455-1.471 1.471-1.519-1.51 1.503-1.51 1.487 1.486 1.471-1.471 1.518 1.51-1.502 1.51zm1.4-2.285-1.392 1.393-1.401-1.401 1.393-1.393zm9.584 6.268.586 1.589q.236.603.407.94.172.336.321.453a.53.53 0 0 0 .337.117h.196v3.1h-.165q-.14 0-.32-.016a1.7 1.7 0 0 1-.455-.125 6.3 6.3 0 0 1-.68 1.698 8.3 8.3 0 0 1-1.127 1.534q-.666.72-1.503 1.346a13.6 13.6 0 0 1-1.784 1.127l-1.894-2.442a20 20 0 0 0 1.62-.978q.767-.516 1.37-1.088.602-.57.993-1.205.399-.626.493-1.323a19 19 0 0 0-.235-.759q-.11-.36-.25-.743a20 20 0 0 0-.329-.846q-.18-.461-.438-1.072zm1.52 3.1H54q.188 0 .43-.016.244-.015.494-.047a7 7 0 0 0 .5-.094 2.5 2.5 0 0 0 .439-.149q.196-.085.313-.195a.34.34 0 0 0 .117-.259q0-.165-.133-.493a10 10 0 0 0-.328-.767 45 45 0 0 0-.447-.931l-.477-.97 2.802-1.386q.234.54.454 1.127.226.588.399 1.174.172.588.274 1.159.11.57.11 1.072 0 1.025-.376 1.76a3.35 3.35 0 0 1-1.026 1.198 4.4 4.4 0 0 1-1.533.689 7.5 7.5 0 0 1-1.887.227h-1.706zm3.13 5.079-1.47 1.47-1.519-1.51 1.503-1.51 1.487 1.487 1.471-1.471 1.518 1.51-1.502 1.51zm7.763-1.98a5.6 5.6 0 0 1-2.05-.4q-1.019-.399-1.965-1.306l1.784-2.513q.391.33.736.54.344.211.65.337.304.117.563.164.258.048.477.047.165 0 .368-.015.204-.016.415-.047.21-.04.407-.094.195-.063.337-.149l-.627-1.354q-.329-.713-.68-1.463-.352-.76-.72-1.534-.36-.775-.72-1.542l2.856-1.182 2.59 6.238q.25.61.564.892.321.282.642.281h.227v3.1h-.227a4 4 0 0 1-.822-.079 3.4 3.4 0 0 1-.657-.211 3 3 0 0 1-.54-.29 6 6 0 0 1-.439-.336q-.36.219-.72.391t-.743.29a5 5 0 0 1-.806.172 6 6 0 0 1-.9.063m1.244-10.926-1.737-1.737 1.737-1.737 1.737 1.737zm4.299 7.826h1.58q.19 0 .431-.015.243-.015.493-.047.259-.039.501-.094.25-.063.439-.149.195-.085.313-.195a.34.34 0 0 0 .117-.259q0-.165-.133-.493a10 10 0 0 0-.329-.767 47 47 0 0 0-.446-.931l-.477-.97 2.801-1.386q.235.54.454 1.127.228.588.4 1.174.172.588.273 1.159.11.57.11 1.072 0 1.025-.376 1.76-.375.729-1.025 1.198a4.4 4.4 0 0 1-1.534.689 7.5 7.5 0 0 1-1.886.227h-1.706zm3.154 5.361 1.471-1.471 1.519 1.51-1.503 1.51-1.487-1.486-1.471 1.471-1.519-1.51 1.503-1.51zm-1.401 2.286L72 30.937l1.4 1.4-1.392 1.393zm53.427-12.723-.354-6a6.2 6.2 0 0 0-.752-2.562 6 6 0 0 0-1.753-1.984L118.08 6.85a44.4 44.4 0 0 0-7.428-4.297L106.335.588a5.5 5.5 0 0 0-2.377-.5 5.5 5.5 0 0 0-2.494.514l-4.476 2.076A44.4 44.4 0 0 0 90.185 6.6L86.68 9.055a6 6 0 0 0-1.785 1.993 6.2 6.2 0 0 0-.766 2.587l-.35 5.968q-.03 2.392 0 4.785l.352 6c.062.9.32 1.775.753 2.562a6.04 6.04 0 0 0 1.752 1.984l3.096 2.218a44.4 44.4 0 0 0 7.43 4.296l4.317 1.966c.748.34 1.559.51 2.378.499a5.5 5.5 0 0 0 2.493-.515l4.476-2.074a44.4 44.4 0 0 0 6.803-3.92l3.507-2.457a6 6 0 0 0 1.784-1.992 6.2 6.2 0 0 0 .766-2.587l.35-5.886c.014-1.282.039-3.362-.001-4.875"/>
  <path fill="#3F3F79" d="m104.113 7.513.013.208a.104.104 0 0 0 .086.102 1 1 0 0 0 .095.018q.467.057.927.162.725.153 1.43.384a14.33 14.33 0 0 1 6.974 4.925c.125.164.124.16.32.101a3.5 3.5 0 0 1 .672-.132q.415-.037.829.012.414.048.802.204a3.53 3.53 0 0 1 1.767 1.474c.336.563.517 1.208.525 1.867a3.65 3.65 0 0 1-1.081 2.528 3.48 3.48 0 0 1-2.721.996 4 4 0 0 1-.645-.1 3.5 3.5 0 0 1-1.564-.86 3.6 3.6 0 0 1-.956-1.532 3.45 3.45 0 0 1-.126-1.515c.062-.48.22-.943.465-1.358s.572-.774.96-1.053q.045-.034.088-.07c.008-.005.01-.017.022-.04-.023-.034-.047-.075-.076-.112a13.54 13.54 0 0 0-8.132-4.934c-.183-.035-.367-.06-.551-.088-.07-.01-.103.014-.107.08-.005.098 0 .195-.005.292v.343q.002.015-.001.028l-.012.026a.1.1 0 0 1-.022.019l-.026.009h-.02c-.202 0-.407 0-.606-.005-.009 0-.019-.009-.039-.02a1 1 0 0 1-.015-.116v-.371a1 1 0 0 0-.008-.129.08.08 0 0 0-.023-.05.08.08 0 0 0-.051-.02.4.4 0 0 0-.064 0l-.701.026q-.153.001-.303.018-.343.036-.681.08-.339.051-.678.114a10 10 0 0 0-.963.225 12.81 12.81 0 0 0-8.779 8.468q-.19.6-.317 1.216-.107.506-.173 1.017c-.034.26-.05.523-.072.788a9 9 0 0 0-.023.419c0 .098.02.12.118.128h1.53a.4.4 0 0 1 .196.023q.015.033.022.07.016.318-.017.637l-.082.02H90.77a.28.28 0 0 0-.185.028.23.23 0 0 0-.018.142q.007.355.054.708c.023.143.034.288.051.432.035.277.088.552.144.826q.122.578.29 1.138.298.974.748 1.885a13.05 13.05 0 0 0 3.406 4.276 12.7 12.7 0 0 0 6.814 2.817c.435.046.871.05 1.307.06q.124.002.24-.007c.078-.006.096-.03.095-.103 0-.123-.009-.246-.017-.37-.033-.468-.03-.936-.029-1.404a.94.94 0 0 1 .353-.729 1.4 1.4 0 0 1 .63-.295q.413-.094.825-.181c.208-.044.418-.081.627-.121q.157-.03.315-.057c.157-.026.314-.057.471-.076q.427-.073.859-.058.151.01.298.054a.62.62 0 0 1 .343.25q.272.37.503.766c.127.23.269.452.407.677a.4.4 0 0 0 .047.065q.02.028.052.036a.1.1 0 0 0 .063-.007 1 1 0 0 0 .098-.055c.66-.434 1.313-.878 1.941-1.362a10.4 10.4 0 0 0 2.06-2.148c.13-.179.263-.353.39-.533.101-.144.196-.294.291-.442a.5.5 0 0 0 .07-.341.8.8 0 0 0-.269-.534 9 9 0 0 0-.761-.613 1.43 1.43 0 0 1-.544-.64 1.3 1.3 0 0 1-.049-.821l.163-.674.222-.921.223-.908q.053-.229.155-.44a1 1 0 0 1 .798-.546 3.2 3.2 0 0 1 .747-.01c.387.038.775.068 1.162.099.138.01.275.012.415.016q.448 0 .895.05.167.022.324.091a.74.74 0 0 1 .413.483c.056.169.068.349.035.524-.035.164-.043.328-.069.492-.042.27-.082.542-.138.81-.061.306-.133.61-.202.913a11 11 0 0 1-.315 1.083 14.2 14.2 0 0 1-1.508 3.197 15 15 0 0 1-1.327 1.775 15.7 15.7 0 0 1-2.52 2.33 14.4 14.4 0 0 1-2.519 1.51q-.784.364-1.599.648c-.373.13-.752.233-1.138.329s-.77.168-1.157.236c-.199.035-.401.047-.602.074q-.302.043-.606.033a.9.9 0 0 1-.325-.066.6.6 0 0 1-.258-.233 1 1 0 0 1-.14-.34c-.015-.063-.035-.122-.054-.187a1 1 0 0 0-.118-.014h-.367q-.64.003-1.275-.064a14 14 0 0 1-.934-.12 13.6 13.6 0 0 1-3.067-.867 14.13 14.13 0 0 1-6.937-6.133 13.8 13.8 0 0 1-1.473-3.87 19 19 0 0 1-.228-1.335 10 10 0 0 1-.062-.724c-.022-.36-.05-.72-.04-1.08a18 18 0 0 1 .2-2.217c.06-.354.13-.708.22-1.057s.184-.684.294-1.021q.32-.975.78-1.89a14 14 0 0 1 2.09-3.072 14.2 14.2 0 0 1 6.24-4.04q.6-.196 1.219-.321c.214-.04.426-.097.642-.132.288-.045.578-.08.869-.114q.39-.043.78-.064c.297-.016.595-.021.894-.029h.463c.048 0 .093.006.159.01m13.383 9.52a2.64 2.64 0 0 0-.291-1.435 2.57 2.57 0 0 0-1.003-1.047 2.49 2.49 0 0 0-2.742.176q-.163.12-.307.263a2.5 2.5 0 0 0-.544.811 2.55 2.55 0 0 0 .521 2.749l.007.007a2.5 2.5 0 0 0 1.55.755 2.4 2.4 0 0 0 1.382-.246c.395-.176.736-.457.987-.815s.403-.778.44-1.217"/>
  <path fill="#3F3F79" d="M103.094 24.069c.005.069.012.116.012.164v1.211c0 .178-.005.18-.179.183h-5.623a.5.5 0 0 1-.226-.021.33.33 0 0 1-.006-.201c.103-.58.322-1.132.642-1.621q.313-.46.692-.866c.448-.493.931-.945 1.412-1.403q.441-.423.866-.86a2.8 2.8 0 0 0 .482-.639c.119-.222.195-.467.223-.72a1.4 1.4 0 0 0-.105-.71.94.94 0 0 0-.619-.566 1.47 1.47 0 0 0-.987.021 1 1 0 0 0-.378.247c-.106.11-.186.245-.234.392q-.09.235-.106.487a1 1 0 0 1-.022.108.3.3 0 0 1-.07.01l-1.572-.151c-.008 0-.016-.013-.035-.027a1 1 0 0 1 0-.134q.077-.497.267-.96c.225-.51.624-.916 1.123-1.143a3.3 3.3 0 0 1 1.037-.3q.333-.044.669-.037a3.4 3.4 0 0 1 1.231.242c.325.127.619.326.86.583s.423.565.533.903c.121.375.156.772.105 1.163a3.6 3.6 0 0 1-.675 1.668 5.7 5.7 0 0 1-.778.897c-.406.386-.821.765-1.231 1.15q-.306.273-.562.596a3 3 0 0 0-.162.237c-.03.045-.007.08.05.088q.08.005.162 0h2.988zm6.659-.298c-.069 0-.128.007-.185.007h-.731a.3.3 0 0 0-.17.026.4.4 0 0 0-.022.19v1.421q-.002.09-.007.17a.24.24 0 0 1-.178.036h-1.331a1 1 0 0 1-.102-.011.15.15 0 0 1-.036-.067.2.2 0 0 1-.003-.075v-1.483c0-.059-.005-.116-.008-.18a1 1 0 0 0-.1-.023h-3.37a.5.5 0 0 1-.212-.022 1 1 0 0 1-.02-.107v-1.306a.35.35 0 0 1 .082-.207q.424-.615.846-1.232l2.886-4.203c.133-.192.088-.171.326-.173h1.032q.091-.01.178.022.012.045.018.09v5.38q-.001.088.005.177a.06.06 0 0 0 .019.044.06.06 0 0 0 .042.019c.042 0 .082.004.128.004h.754q.081 0 .162.006a.4.4 0 0 1 .018.08v1.34zm-2.799-4.585c-.04.053-.065.08-.082.11l-1.244 1.845-.65.96c-.028.04-.071.08-.07.134.015.012.023.025.031.025q.976.005 1.951.006a.13.13 0 0 0 .076-.017.13.13 0 0 0 .062-.138.13.13 0 0 0-.037-.07v-2.762a.5.5 0 0 0-.037-.09zm10.281-2.563c.028.482-.093.96-.345 1.368a2.27 2.27 0 0 1-2.152 1.071 2.24 2.24 0 0 1-1.21-.48 2.33 2.33 0 0 1-.756-1.08 2.15 2.15 0 0 1-.106-.94c.038-.4.179-.783.408-1.11.23-.326.541-.584.9-.746a2.05 2.05 0 0 1 1.115-.22c.443.022.87.175 1.228.442.358.268.632.636.788 1.061q.12.305.13.634m-2.299-.868a1 1 0 0 0-.709.285c-.19.187-.301.443-.307.713.004.271.112.53.3.72a1 1 0 0 0 1.417.015 1.01 1.01 0 0 0 .025-1.429 1 1 0 0 0-.698-.3z"/>
  <path fill="#3F3F79" d="M114.946 16.372a.4.4 0 0 1 .286.11.42.42 0 0 1 .129.284.45.45 0 0 1-.112.302.4.4 0 0 1-.288.133h-.015a.4.4 0 0 1-.282-.123.43.43 0 0 1-.124-.288.4.4 0 0 1 .106-.29.4.4 0 0 1 .276-.129z"/>
</svg>
